<svg xmlns="http://www.w3.org/2000/svg" width="18.75" height="20.75" viewBox="0 0 18.75 20.75">
  <g id="copy-svgrepo-com_2_" data-name="copy-svgrepo-com (2)" transform="translate(-2.25 -1.25)">
    <g id="Path_7" data-name="Path 7" fill="none">
      <path d="M6,11c0-2.828,0-4.243.879-5.121S9.172,5,12,5h3c2.828,0,4.243,0,5.121.879S21,8.172,21,11v5c0,2.828,0,4.243-.879,5.121S17.828,22,15,22H12c-2.828,0-4.243,0-5.121-.879S6,18.828,6,16Z" stroke="none"/>
      <path d="M 12 6.5 C 9.819320678710938 6.5 8.378679275512695 6.5 7.939340591430664 6.939340591430664 C 7.5 7.378679275512695 7.5 8.819320678710938 7.5 11 L 7.5 16 C 7.5 18.18066024780273 7.5 19.62129020690918 7.939350128173828 20.06064987182617 C 8.378690719604492 20.5 9.819330215454102 20.5 12 20.5 L 15 20.5 C 17.18066024780273 20.5 18.62128067016602 20.5 19.06064033508301 20.06064033508301 C 19.5 19.62128067016602 19.5 18.18066024780273 19.5 16 L 19.5 11 C 19.5 8.819330215454102 19.5 7.378690719604492 19.06064987182617 6.939350128173828 C 18.62129020690918 6.5 17.18066024780273 6.5 15 6.5 L 12 6.5 M 12 5 L 15 5 C 17.82839965820312 5 19.24259948730469 5 20.12129974365234 5.878679275512695 C 21 6.757360458374023 21 8.17156982421875 21 11 L 21 16 C 21 18.82839965820312 21 20.24259948730469 20.12129974365234 21.12129974365234 C 19.24259948730469 22 17.82839965820312 22 15 22 L 12 22 C 9.17156982421875 22 7.757360458374023 22 6.878679275512695 21.12129974365234 C 6 20.24259948730469 6 18.82839965820312 6 16 L 6 11 C 6 8.17156982421875 6 6.757360458374023 6.878679275512695 5.878679275512695 C 7.757360458374023 5 9.17156982421875 5 12 5 Z" stroke="none" fill="#0f0f10"/>
    </g>
    <path id="Path_8" data-name="Path 8" d="M6.181,19.063A3.213,3.213,0,0,1,3,16V10C3,6.229,3,4.343,4.172,3.172S7.229,2,11,2h4a3.085,3.085,0,0,1,2.919,3.173" fill="none" stroke="#0f0f10" stroke-width="1.5"/>
  </g>
</svg>
