<svg xmlns="http://www.w3.org/2000/svg" xmlns:xlink="http://www.w3.org/1999/xlink" width="19" height="19" viewBox="0 0 19 19">
  <defs>
    <clipPath id="clip-path">
      <rect id="Rectangle_3156" data-name="Rectangle 3156" width="19" height="19" rx="5" transform="translate(885 398)" fill="#fff" stroke="#d9d9d9" stroke-width="1"/>
    </clipPath>
  </defs>
  <g id="Mask_Group_54" data-name="Mask Group 54" transform="translate(-885 -398)" clip-path="url(#clip-path)">
    <g id="eye-svgrepo-com" transform="translate(883.895 396.896)">
      <g id="Path_28" data-name="Path 28" fill="none">
        <path d="M2.894,13.517A3.889,3.889,0,0,1,1.767,10.6,3.889,3.889,0,0,1,2.894,7.692,9.732,9.732,0,0,1,10.6,3.535a9.732,9.732,0,0,1,7.711,4.157A3.889,3.889,0,0,1,19.442,10.6a3.889,3.889,0,0,1-1.127,2.912A9.733,9.733,0,0,1,10.6,17.674,9.733,9.733,0,0,1,2.894,13.517Z" stroke="none"/>
        <path d="M 10.60465145111084 16.6744213104248 C 12.08280181884766 16.6744213104248 13.4791316986084 16.2717113494873 14.75486183166504 15.47748184204102 C 15.76067161560059 14.85129165649414 16.69193077087402 13.98651123046875 17.52284049987793 12.90707111358643 C 18.22880172729492 11.98989105224609 18.44186210632324 11.71308135986328 18.44186210632324 10.60465145111084 C 18.44186210632324 9.496241569519043 18.22881126403809 9.219441413879395 17.52277183532715 8.30216121673584 C 16.69194221496582 7.222801685333252 15.76068115234375 6.358011245727539 14.75486183166504 5.7318115234375 C 13.47914123535156 4.937591552734375 12.08281135559082 4.534881591796875 10.60465145111084 4.534881591796875 C 9.126491546630859 4.534881591796875 7.730151653289795 4.937591552734375 6.454421520233154 5.7318115234375 C 5.448581218719482 6.358021259307861 4.517321586608887 7.222811222076416 3.6864914894104 8.302201271057129 C 2.980511426925659 9.219391822814941 2.767441511154175 9.496201515197754 2.767441511154175 10.60465145111084 C 2.767441511154175 11.71312141418457 2.980511426925659 11.98994159698486 3.686521530151367 12.90716171264648 C 4.517331600189209 13.98650169372559 5.448591232299805 14.85128116607666 6.454421520233154 15.47748184204102 C 7.730161666870117 16.2717113494873 9.126501083374023 16.6744213104248 10.60465145111084 16.6744213104248 M 10.60465145111084 17.6744213104248 C 6.909031391143799 17.6744213104248 4.393821239471436 15.4654712677002 2.894091367721558 13.51713180541992 C 2.142991542816162 12.54132175445557 1.767441391944885 12.05342102050781 1.767441391944885 10.60465145111084 C 1.767441391944885 9.155881881713867 2.142991542816162 8.668001174926758 2.894091367721558 7.692201614379883 C 4.393821239471436 5.743801593780518 6.909031391143799 3.534881353378296 10.60465145111084 3.534881353378296 C 14.3002815246582 3.534881353378296 16.8154411315918 5.743801593780518 18.31520080566406 7.692201614379883 C 19.06628227233887 8.668001174926758 19.44186210632324 9.155881881713867 19.44186210632324 10.60465145111084 C 19.44186210632324 12.05342102050781 19.06628227233887 12.54132175445557 18.31520080566406 13.51713180541992 C 16.8154411315918 15.4654712677002 14.3002815246582 17.6744213104248 10.60465145111084 17.6744213104248 Z" stroke="none" fill="#d9d9d9"/>
      </g>
      <g id="Path_29" data-name="Path 29" fill="none">
        <path d="M13.256,10.6A2.651,2.651,0,1,1,10.6,7.953,2.651,2.651,0,0,1,13.256,10.6Z" stroke="none"/>
        <path d="M 10.60465049743652 12.25581073760986 C 11.51510047912598 12.25581073760986 12.25581073760986 11.51510047912598 12.25581073760986 10.60465049743652 C 12.25581073760986 9.69420051574707 11.51510047912598 8.953490257263184 10.60465049743652 8.953490257263184 C 9.69420051574707 8.953490257263184 8.953490257263184 9.69420051574707 8.953490257263184 10.60465049743652 C 8.953490257263184 11.51510047912598 9.69420051574707 12.25581073760986 10.60465049743652 12.25581073760986 M 10.60465049743652 13.25581073760986 C 9.140410423278809 13.25581073760986 7.953490734100342 12.06889057159424 7.953490734100342 10.60465049743652 C 7.953490734100342 9.140410423278809 9.140410423278809 7.953490734100342 10.60465049743652 7.953490734100342 C 12.06889057159424 7.953490734100342 13.25581073760986 9.140410423278809 13.25581073760986 10.60465049743652 C 13.25581073760986 12.06889057159424 12.06889057159424 13.25581073760986 10.60465049743652 13.25581073760986 Z" stroke="none" fill="#d9d9d9"/>
      </g>
    </g>
  </g>
</svg>
