<svg xmlns="http://www.w3.org/2000/svg" xmlns:xlink="http://www.w3.org/1999/xlink" width="40" height="40" viewBox="0 0 40 40">
  <defs>
    <clipPath id="clip-path">
      <rect id="Rectangle_49" data-name="Rectangle 49" width="40" height="40" fill="#fff" stroke="#707070" stroke-width="1"/>
    </clipPath>
  </defs>
  <g id="Group_1" data-name="Group 1" transform="translate(-17 -10)">
    <g id="Mask_Group_1" data-name="Mask Group 1" transform="translate(17 10)" clip-path="url(#clip-path)">
      <g id="Page-3" transform="translate(2.516)">
        <g id="Group-4">
          <g id="Group-3">
            <g id="Group-2">
              <path id="Polygon" d="M17.433,0,34.866,10.065V30.2L17.433,40.26,0,30.2V10.065Z" transform="translate(0)" fill="#078e05" fill-rule="evenodd"/>
              <path id="Path-8" d="M0,22.151.008,2.091,17.467,32.127Z" transform="translate(0 8.133)" fill="#028400" fill-rule="evenodd"/>
              <path id="Path-9" d="M0,10.058,34.851,30.2,17.478,0Z" fill="#027600" fill-rule="evenodd"/>
              <path id="Path-10" d="M3.586.012,20.92,10.082l-6.4,9.238Z" transform="translate(13.944 0.047)" fill="#02ad00" fill-rule="evenodd"/>
            </g>
            <g id="Group" transform="translate(1.598 12.461)">
              <circle id="Oval" cx="1.598" cy="1.598" r="1.598" transform="translate(8.201 18.639)" fill="#fff"/>
              <circle id="Oval-Copy" cx="1.598" cy="1.598" r="1.598" transform="translate(21.621 18.639)" fill="#fff"/>
              <line id="Line" x2="3.834" transform="translate(0 0)" fill="none" stroke="#fff" stroke-linecap="square" stroke-width="0.8"/>
              <line id="Line-2" x2="3.621" y2="17.68" transform="translate(3.834 0)" fill="none" stroke="#fff" stroke-linecap="square" stroke-width="0.8"/>
              <line id="Line-3" x2="18.969" transform="translate(6.817 13.42)" fill="none" stroke="#fff" stroke-linecap="square" stroke-width="0.8"/>
              <line id="Line-3-2" data-name="Line-3" x2="18.969" transform="translate(7.669 17.68)" fill="none" stroke="#fff" stroke-linecap="square" stroke-width="0.8"/>
              <line id="Line-3-3" data-name="Line-3" x2="7.469" transform="translate(18.103 15.018)" fill="none" stroke="#fff" stroke-linecap="square" stroke-width="0.8"/>
              <line id="Line-3-Copy" x2="12.267" transform="translate(12.241 16.296)" fill="none" stroke="#fff" stroke-linecap="square" stroke-width="0.8"/>
              <path id="commerce" d="M2.511,4.055a1.091,1.091,0,0,0,.378-.065A.772.772,0,0,0,3.2,3.776h0L2.956,3.53a.639.639,0,0,1-.192.151.552.552,0,0,1-.249.052.586.586,0,0,1-.242-.048.547.547,0,0,1-.184-.132.6.6,0,0,1-.119-.2.68.68,0,0,1-.042-.24.814.814,0,0,1,.036-.243.638.638,0,0,1,.107-.207.5.5,0,0,1,.176-.142A.555.555,0,0,1,2.5,2.472a.564.564,0,0,1,.251.052.724.724,0,0,1,.2.151h0l.261-.238a.839.839,0,0,0-.316-.217,1.042,1.042,0,0,0-.382-.071,1.025,1.025,0,0,0-.389.071.864.864,0,0,0-.493.5,1.054,1.054,0,0,0-.069.387,1.039,1.039,0,0,0,.069.385.856.856,0,0,0,.2.3.89.89,0,0,0,.3.194A1.039,1.039,0,0,0,2.511,4.055Zm1.863,0a.963.963,0,0,0,.38-.075.974.974,0,0,0,.307-.2.945.945,0,0,0,.28-.677.925.925,0,0,0-.075-.372.969.969,0,0,0-.205-.3.976.976,0,0,0-1.373,0,.969.969,0,0,0-.205.3.925.925,0,0,0-.075.372.945.945,0,0,0,.28.677.974.974,0,0,0,.307.2A.962.962,0,0,0,4.375,4.055Zm0-.322a.623.623,0,0,1-.249-.048.55.55,0,0,1-.188-.13.575.575,0,0,1-.119-.2.791.791,0,0,1,0-.51.575.575,0,0,1,.119-.2.551.551,0,0,1,.188-.13.672.672,0,0,1,.5,0,.55.55,0,0,1,.188.13.575.575,0,0,1,.119.2.792.792,0,0,1,0,.51.575.575,0,0,1-.119.2.55.55,0,0,1-.188.13A.623.623,0,0,1,4.375,3.733Zm1.745.276V3.066A.832.832,0,0,1,6.158,2.8a.53.53,0,0,1,.1-.186A.422.422,0,0,1,6.413,2.5a.454.454,0,0,1,.178-.036.4.4,0,0,1,.2.044.3.3,0,0,1,.115.123.558.558,0,0,1,.054.186,1.927,1.927,0,0,1,.013.238h0v.951h.345V3.016a.674.674,0,0,1,.107-.395.491.491,0,0,1,.56-.109.317.317,0,0,1,.119.117.461.461,0,0,1,.056.169,1.441,1.441,0,0,1,.013.2h0V4.009H8.52V2.951a1.513,1.513,0,0,0-.029-.3A.7.7,0,0,0,8.385,2.4a.556.556,0,0,0-.211-.182.753.753,0,0,0-.345-.069A.7.7,0,0,0,7.5,2.23a.582.582,0,0,0-.249.253.628.628,0,0,0-.226-.253.643.643,0,0,0-.341-.084.661.661,0,0,0-.224.036.757.757,0,0,0-.176.088.611.611,0,0,0-.123.109.3.3,0,0,0-.059.1H6.1V2.192H5.774V4.009Zm3.267,0V3.066A.832.832,0,0,1,9.424,2.8a.53.53,0,0,1,.1-.186A.422.422,0,0,1,9.679,2.5a.454.454,0,0,1,.178-.036.4.4,0,0,1,.2.044.3.3,0,0,1,.115.123.558.558,0,0,1,.054.186,1.927,1.927,0,0,1,.013.238h0v.951h.345V3.016a.674.674,0,0,1,.107-.395.491.491,0,0,1,.56-.109.317.317,0,0,1,.119.117.461.461,0,0,1,.056.169,1.441,1.441,0,0,1,.013.2h0V4.009h.345V2.951a1.513,1.513,0,0,0-.029-.3.7.7,0,0,0-.105-.257.556.556,0,0,0-.211-.182.753.753,0,0,0-.345-.069.7.7,0,0,0-.326.084.582.582,0,0,0-.249.253.628.628,0,0,0-.226-.253.643.643,0,0,0-.341-.084.661.661,0,0,0-.224.036.757.757,0,0,0-.176.088.611.611,0,0,0-.123.109.3.3,0,0,0-.059.1H9.363V2.192H9.041V4.009Zm3.75.046a.96.96,0,0,0,.805-.372h0l-.261-.2a.9.9,0,0,1-.219.2.514.514,0,0,1-.28.075.7.7,0,0,1-.23-.038.63.63,0,0,1-.2-.107.539.539,0,0,1-.136-.167.456.456,0,0,1-.052-.217h1.457V3.1a1.278,1.278,0,0,0-.048-.347.87.87,0,0,0-.155-.307.807.807,0,0,0-.274-.22.9.9,0,0,0-.408-.084.956.956,0,0,0-.376.073.892.892,0,0,0-.3.2.937.937,0,0,0-.2.3A.993.993,0,0,0,12.2,3.1a1.07,1.07,0,0,0,.065.378.893.893,0,0,0,.186.3.847.847,0,0,0,.3.2A1,1,0,0,0,13.136,4.055Zm.521-1.1H12.569a.469.469,0,0,1,.04-.186.576.576,0,0,1,.113-.171A.565.565,0,0,1,12.9,2.47a.554.554,0,0,1,.232-.048.6.6,0,0,1,.228.04.451.451,0,0,1,.163.111.464.464,0,0,1,.1.167.727.727,0,0,1,.036.211Zm1.127,1.058V3.1a.623.623,0,0,1,.134-.441.508.508,0,0,1,.387-.142.47.47,0,0,1,.084.008q.042.008.084.019h0l.015-.372a.483.483,0,0,0-.153-.023.593.593,0,0,0-.169.025.679.679,0,0,0-.155.067.616.616,0,0,0-.128.1.493.493,0,0,0-.092.132h-.008v-.28H14.44V4.009Zm1.867.046a1.091,1.091,0,0,0,.378-.065.772.772,0,0,0,.313-.215h0L17.1,3.53a.639.639,0,0,1-.192.151.552.552,0,0,1-.249.052.586.586,0,0,1-.242-.048.547.547,0,0,1-.184-.132.6.6,0,0,1-.119-.2.68.68,0,0,1-.042-.24.814.814,0,0,1,.036-.243.638.638,0,0,1,.107-.207.5.5,0,0,1,.176-.142.555.555,0,0,1,.247-.052.565.565,0,0,1,.251.052.724.724,0,0,1,.2.151h0l.261-.238a.839.839,0,0,0-.316-.217,1.042,1.042,0,0,0-.381-.071,1.025,1.025,0,0,0-.389.071.864.864,0,0,0-.493.5,1.054,1.054,0,0,0-.069.387,1.039,1.039,0,0,0,.069.385.856.856,0,0,0,.2.3.89.89,0,0,0,.3.194A1.039,1.039,0,0,0,16.652,4.055Zm1.814,0a.96.96,0,0,0,.805-.372h0l-.261-.2a.9.9,0,0,1-.218.2.515.515,0,0,1-.28.075.7.7,0,0,1-.23-.038.63.63,0,0,1-.2-.107.54.54,0,0,1-.136-.167.456.456,0,0,1-.052-.217h1.457V3.1a1.28,1.28,0,0,0-.048-.347.868.868,0,0,0-.155-.307.805.805,0,0,0-.274-.22.9.9,0,0,0-.408-.084.956.956,0,0,0-.376.073.892.892,0,0,0-.3.2.935.935,0,0,0-.2.3.993.993,0,0,0-.071.378,1.07,1.07,0,0,0,.065.378.894.894,0,0,0,.186.3.846.846,0,0,0,.3.2A1,1,0,0,0,18.466,4.055Zm.521-1.1H17.9a.468.468,0,0,1,.04-.186.572.572,0,0,1,.113-.171.566.566,0,0,1,.178-.125.554.554,0,0,1,.232-.048.6.6,0,0,1,.228.04.451.451,0,0,1,.163.111.469.469,0,0,1,.1.167.732.732,0,0,1,.036.211Z" transform="translate(5.961 8.026)" fill="#fff"/>
              <line id="Line-4" y1="12.142" x2="3.834" transform="translate(25.988 1.065)" fill="none" stroke="#fff" stroke-linecap="square" stroke-width="0.8"/>
              <path id="Spurt" d="M3.319,6.135a2.806,2.806,0,0,0,.775-.107,1.988,1.988,0,0,0,.667-.33,1.613,1.613,0,0,0,.464-.564A1.773,1.773,0,0,0,5.4,4.325a1.314,1.314,0,0,0-.161-.679A1.55,1.55,0,0,0,4.83,3.19a2.152,2.152,0,0,0-.544-.3q-.3-.111-.575-.2-.192-.061-.345-.119A1.5,1.5,0,0,1,3.1,2.447a.512.512,0,0,1-.169-.161.427.427,0,0,1-.058-.23.449.449,0,0,1,.073-.265.6.6,0,0,1,.18-.169.684.684,0,0,1,.242-.088,1.565,1.565,0,0,1,.265-.023,1.244,1.244,0,0,1,.525.127,1.184,1.184,0,0,1,.441.341h0L5.436,1.1A2.419,2.419,0,0,0,4.6.6,2.819,2.819,0,0,0,3.657.43a3.06,3.06,0,0,0-.759.1,2.075,2.075,0,0,0-.675.3,1.6,1.6,0,0,0-.483.529,1.537,1.537,0,0,0-.184.775,1.482,1.482,0,0,0,.119.625,1.368,1.368,0,0,0,.314.437,1.707,1.707,0,0,0,.445.3,4.582,4.582,0,0,0,.51.2q.268.084.479.157a1.759,1.759,0,0,1,.353.161.749.749,0,0,1,.219.2.437.437,0,0,1,.077.261.579.579,0,0,1-.061.276.5.5,0,0,1-.165.184.707.707,0,0,1-.242.1,1.3,1.3,0,0,1-.284.031,1.426,1.426,0,0,1-.648-.165,1.587,1.587,0,0,1-.525-.41h0l-.859.874a2.388,2.388,0,0,0,.9.579A3.2,3.2,0,0,0,3.319,6.135Zm4.3,1.7V5.575h.015a1.191,1.191,0,0,0,.491.387A1.6,1.6,0,0,0,8.8,6.1a1.692,1.692,0,0,0,.767-.169,1.762,1.762,0,0,0,.571-.449,1.971,1.971,0,0,0,.357-.648,2.409,2.409,0,0,0,.123-.767,2.309,2.309,0,0,0-.127-.763,1.989,1.989,0,0,0-.36-.64,1.7,1.7,0,0,0-.571-.437A1.722,1.722,0,0,0,8.8,2.071a1.485,1.485,0,0,0-.732.173,1.55,1.55,0,0,0-.487.4H7.562V2.178h-1.2V7.838ZM8.5,5.062a.846.846,0,0,1-.383-.084.915.915,0,0,1-.288-.222,1.018,1.018,0,0,1-.184-.314,1.029,1.029,0,0,1,0-.721,1.018,1.018,0,0,1,.184-.314.915.915,0,0,1,.288-.222A.846.846,0,0,1,8.5,3.1a.864.864,0,0,1,.391.084.854.854,0,0,1,.28.219.936.936,0,0,1,.169.311,1.156,1.156,0,0,1,.058.36,1.191,1.191,0,0,1-.058.364.974.974,0,0,1-.169.318.831.831,0,0,1-.28.222A.864.864,0,0,1,8.5,5.062ZM12.924,6.1a1.323,1.323,0,0,0,.38-.054,1.6,1.6,0,0,0,.33-.138,1.136,1.136,0,0,0,.261-.2,1.081,1.081,0,0,0,.18-.245h.015V6H15.3V2.178H14.043V4.241a.974.974,0,0,1-.173.575.576.576,0,0,1-.5.245A.542.542,0,0,1,13.085,5a.487.487,0,0,1-.173-.18.766.766,0,0,1-.088-.261,1.964,1.964,0,0,1-.023-.307h0V2.178H11.536V4.54a2.258,2.258,0,0,0,.073.571,1.406,1.406,0,0,0,.238.5,1.255,1.255,0,0,0,.429.357A1.388,1.388,0,0,0,12.924,6.1ZM17.711,6V4.034a.952.952,0,0,1,.046-.268.842.842,0,0,1,.15-.284.867.867,0,0,1,.276-.222.9.9,0,0,1,.426-.092q.077,0,.157.008a.985.985,0,0,1,.165.031h0l.054-1.1a.577.577,0,0,0-.119-.023,1.427,1.427,0,0,0-.15-.008,1.072,1.072,0,0,0-.621.184,1.24,1.24,0,0,0-.414.475h-.015V2.178H16.453V6Zm3.445.092a2.335,2.335,0,0,0,.4-.035,2.074,2.074,0,0,0,.33-.081h0l-.015-.92A.673.673,0,0,1,21.7,5.1a1.34,1.34,0,0,1-.2.015.444.444,0,0,1-.372-.134.653.653,0,0,1-.1-.4h0V3.121h.9V2.178h-.9v-1H19.791v1h-.606v.943H19.8v1.61a2.075,2.075,0,0,0,.069.556,1.082,1.082,0,0,0,.226.429,1,1,0,0,0,.418.276A1.879,1.879,0,0,0,21.156,6.089Z" transform="translate(4.899 1.352)" fill="#fff"/>
            </g>
          </g>
        </g>
      </g>
    </g>
  </g>
</svg>
