<svg xmlns="http://www.w3.org/2000/svg" width="74.523" height="24.002" viewBox="0 0 74.523 24.002">
  <g id="logoipsum-289" transform="translate(0 0)">
    <path id="Path_10" data-name="Path 10" d="M71.095,1.29A1.286,1.286,0,0,1,72.38,0h.857a1.286,1.286,0,0,1,0,2.572H72.38A1.285,1.285,0,0,1,71.095,1.29Zm-36,7.285A8.571,8.571,0,1,1,26.527,0,8.57,8.57,0,0,1,35.1,8.575ZM16.284,8.532a.793.793,0,0,1,.814.856A8.571,8.571,0,1,1,7.715,0a.794.794,0,0,1,.856.814V7.675a.857.857,0,0,0,.857.857ZM47.1,18.86A2.571,2.571,0,1,1,47.1,24H42.811a2.571,2.571,0,0,1,0-5.142Zm-2.571-1.714a8.572,8.572,0,0,0,7.5-12.726L53.439,3A1.757,1.757,0,1,0,50.954.519L49.717,1.755a8.571,8.571,0,1,0-5.192,15.39Zm26.57-8.571A8.571,8.571,0,1,1,62.524,0,8.571,8.571,0,0,1,71.095,8.575Z" fill="#fff"/>
  </g>
</svg>
