<svg xmlns="http://www.w3.org/2000/svg" xmlns:xlink="http://www.w3.org/1999/xlink" width="15" height="15" viewBox="0 0 15 15">
  <defs>
    <clipPath id="clip-path">
      <rect id="Rectangle_3146" data-name="Rectangle 3146" width="15" height="15" transform="translate(585 267)" fill="#fff" stroke="#707070" stroke-width="1"/>
    </clipPath>
  </defs>
  <g id="Mask_Group_50" data-name="Mask Group 50" transform="translate(-585 -267)" clip-path="url(#clip-path)">
    <g id="google-svgrepo-com" transform="translate(583.928 265.928)">
      <path id="Path_16" data-name="Path 16" d="M15.965,8.744a8.846,8.846,0,0,0-.13-1.524H8.721v2.888h4.074a3.472,3.472,0,0,1-1.508,2.279v1.875h2.431a7.307,7.307,0,0,0,2.247-5.518Z" fill="#4285f4"/>
      <path id="Path_17" data-name="Path 17" d="M8.722,16.072a7.241,7.241,0,0,0,5-1.811l-2.43-1.874a4.586,4.586,0,0,1-6.8-2.378H1.982v1.932a7.547,7.547,0,0,0,6.74,4.13Z" fill="#34a853"/>
      <path id="Path_18" data-name="Path 18" d="M4.486,10.01a4.468,4.468,0,0,1,0-2.872V5.206H1.981a7.468,7.468,0,0,0,0,6.735L4.486,10.01Z" fill="#fbbc04"/>
      <path id="Path_19" data-name="Path 19" d="M8.722,4.039a4.111,4.111,0,0,1,2.893,1.125l2.154-2.142a7.271,7.271,0,0,0-5.047-1.95,7.545,7.545,0,0,0-6.74,4.134l2.5,1.93a4.509,4.509,0,0,1,4.234-3.1Z" fill="#ea4335"/>
    </g>
  </g>
</svg>
