<svg xmlns="http://www.w3.org/2000/svg" width="21.428" height="21.424" viewBox="0 0 21.428 21.424">
  <g id="notes-svgrepo-com" transform="translate(-1.286 -1.286)">
    <path id="Path_3" data-name="Path 3" d="M20.362,12.687l.52-1.939c.606-2.264.91-3.4.681-4.375A4.015,4.015,0,0,0,20.4,4.355c-.734-.688-1.866-.991-4.129-1.6s-3.4-.91-4.375-.681A4.015,4.015,0,0,0,9.874,3.242,7.548,7.548,0,0,0,8.522,6.462c-.077.281-.158.583-.245.908h0L7.757,9.31c-.607,2.264-.91,3.4-.681,4.375A4.015,4.015,0,0,0,8.242,15.7c.734.687,1.866.991,4.129,1.6h0a12.171,12.171,0,0,0,4.08.734,2.788,2.788,0,0,0,.3-.052,4.015,4.015,0,0,0,2.019-1.165C19.452,16.083,19.755,14.951,20.362,12.687Z" transform="translate(0.361)" fill="none" stroke="#000" stroke-width="1.5"/>
    <path id="Path_4" data-name="Path 4" d="M16.469,18.018A4.015,4.015,0,0,1,15.4,19.7c-.734.687-1.866.991-4.129,1.6s-3.4.91-4.375.681a4.015,4.015,0,0,1-2.019-1.165c-.688-.734-.991-1.866-1.6-4.129l-.52-1.939c-.607-2.264-.91-3.4-.681-4.375A4.015,4.015,0,0,1,3.242,8.353c.734-.688,1.866-.991,4.129-1.6.428-.115.816-.219,1.17-.31" transform="translate(0 -0.061)" fill="none" stroke="#000" stroke-width="1.5"/>
  </g>
</svg>
